<svg width="98" height="68" viewBox="0 0 98 68" fill="none" xmlns="http://www.w3.org/2000/svg">
<g clip-path="url(#clip0_13_29)" filter="url(#filter0_d_13_29)">
<path d="M12.4564 16.8C12.4564 14.4804 10.5634 12.6 8.22819 12.6C5.89302 12.6 4 14.4804 4 16.8V30C4 32.3196 5.89302 34.2 8.22819 34.2C10.5634 34.2 12.4564 32.3196 12.4564 30V16.8Z" fill="white"/>
<path d="M94 16.8C94 14.4804 92.107 12.6 89.7718 12.6C87.4366 12.6 85.5436 14.4804 85.5436 16.8V30C85.5436 32.3196 87.4366 34.2 89.7718 34.2C92.107 34.2 94 32.3196 94 30V16.8Z" fill="white"/>
<path d="M52.9262 16.8C52.9262 14.4804 51.0331 12.6 48.698 12.6C46.3628 12.6 44.4698 14.4804 44.4698 16.8V30C44.4698 32.3196 46.3628 34.2 48.698 34.2C51.0331 34.2 52.9262 32.3196 52.9262 30V16.8Z" fill="white"/>
<path d="M25.745 11.4C25.745 9.08042 23.852 7.20001 21.5168 7.20001C19.1816 7.20001 17.2886 9.08042 17.2886 11.4V35.4C17.2886 37.7196 19.1816 39.6 21.5168 39.6C23.852 39.6 25.745 37.7196 25.745 35.4V11.4Z" fill="white"/>
<path d="M80.1074 11.4C80.1074 9.08042 78.2144 7.20001 75.8792 7.20001C73.544 7.20001 71.651 9.08042 71.651 11.4V35.4C71.651 37.7196 73.544 39.6 75.8792 39.6C78.2144 39.6 80.1074 37.7196 80.1074 35.4V11.4Z" fill="white"/>
<path d="M39.6376 4.2C39.6376 1.8804 37.7446 0 35.4094 0C33.0742 0 31.1812 1.8804 31.1812 4.2V42.6C31.1812 44.9196 33.0742 46.8 35.4094 46.8C37.7446 46.8 39.6376 44.9196 39.6376 42.6V4.2Z" fill="white"/>
<path d="M66.8188 4.2C66.8188 1.8804 64.9258 0 62.5906 0C60.2555 0 58.3624 1.8804 58.3624 4.2V42.6C58.3624 44.9196 60.2555 46.8 62.5906 46.8C64.9258 46.8 66.8188 44.9196 66.8188 42.6V4.2Z" fill="white"/>
<path d="M18.6147 49.2H21.4718V60H18.6147V55.7271H16.5216V60H13.6644V49.2H16.5216V53.6243H18.6147V49.2Z" fill="white"/>
<path d="M28.2294 60L27.8972 58.3851H25.339L24.9902 60H22.1331L24.8739 49.2H28.4122L31.153 60H28.2294ZM25.7875 56.2991H27.4487L26.6347 52.4131L25.7875 56.2991Z" fill="white"/>
<path d="M34.7241 56.1645V60H31.817V49.2H36.7506C38.3786 49.2 39.1925 49.8954 39.1925 51.286V54.0785C39.1925 55.1439 38.7163 55.8 37.764 56.0467L39.7241 60H36.6012L34.9068 56.1645H34.7241ZM35.8702 51.3028H34.7241V54.1626H35.8702C36.1471 54.1626 36.2855 54.0393 36.2855 53.7925V51.6729C36.2855 51.4262 36.1471 51.3028 35.8702 51.3028Z" fill="white"/>
<path d="M40.516 49.2H45.4164C47.0443 49.2 47.8583 49.8954 47.8583 51.286V57.9141C47.8583 59.3047 47.0443 60 45.4164 60H40.516V49.2ZM44.9513 57.6954V51.5047C44.9513 51.258 44.8128 51.1346 44.536 51.1346H43.423V58.0654H44.536C44.8128 58.0654 44.9513 57.9421 44.9513 57.6954Z" fill="white"/>
<path d="M59.6108 53.2374H56.7038V51.5047C56.7038 51.258 56.5653 51.1346 56.2885 51.1346H55.7071C55.4302 51.1346 55.2918 51.258 55.2918 51.5047V57.6954C55.2918 57.9421 55.4302 58.0654 55.7071 58.0654H56.2885C56.5653 58.0654 56.7038 57.9421 56.7038 57.6954V56.0299H59.6108V57.9141C59.6108 59.3047 58.7968 60 57.1689 60H54.8267C53.1988 60 52.3848 59.3047 52.3848 57.9141V51.286C52.3848 49.8954 53.1988 49.2 54.8267 49.2H57.1689C58.7968 49.2 59.6108 49.8954 59.6108 51.286V53.2374Z" fill="white"/>
<path d="M63.0845 49.2H65.5431C67.1709 49.2 67.9852 49.8954 67.9852 51.286V57.9141C67.9852 59.3047 67.1709 60 65.5431 60H63.0845C61.4566 60 60.6426 59.3047 60.6426 57.9141V51.286C60.6426 49.8954 61.4566 49.2 63.0845 49.2ZM65.078 57.5271V51.6729C65.078 51.4262 64.9397 51.3028 64.6624 51.3028H63.9649C63.6881 51.3028 63.5497 51.4262 63.5497 51.6729V57.5271C63.5497 57.7738 63.6881 57.8972 63.9649 57.8972H64.6624C64.9397 57.8972 65.078 57.7738 65.078 57.5271Z" fill="white"/>
<path d="M72.1651 56.1645V60H69.2579V49.2H74.1916C75.8194 49.2 76.633 49.8954 76.633 51.286V54.0785C76.633 55.1439 76.1571 55.8 75.2045 56.0467L77.1646 60H74.0418L72.3475 56.1645H72.1651ZM73.3109 51.3028H72.1651V54.1626H73.3109C73.5881 54.1626 73.7265 54.0393 73.7265 53.7925V51.6729C73.7265 51.4262 73.5881 51.3028 73.3109 51.3028Z" fill="white"/>
<path d="M80.6975 57.8972H84.3356V60H77.7903V49.2H84.1858V51.3028H80.6975V53.5066H83.7044V55.6093H80.6975V57.8972Z" fill="white"/>
</g>
<defs>
<filter id="filter0_d_13_29" x="0" y="0" width="98" height="68" filterUnits="userSpaceOnUse" color-interpolation-filters="sRGB">
<feFlood flood-opacity="0" result="BackgroundImageFix"/>
<feColorMatrix in="SourceAlpha" type="matrix" values="0 0 0 0 0 0 0 0 0 0 0 0 0 0 0 0 0 0 127 0" result="hardAlpha"/>
<feOffset dy="4"/>
<feGaussianBlur stdDeviation="2"/>
<feComposite in2="hardAlpha" operator="out"/>
<feColorMatrix type="matrix" values="0 0 0 0 0 0 0 0 0 0 0 0 0 0 0 0 0 0 0.25 0"/>
<feBlend mode="normal" in2="BackgroundImageFix" result="effect1_dropShadow_13_29"/>
<feBlend mode="normal" in="SourceGraphic" in2="effect1_dropShadow_13_29" result="shape"/>
</filter>
<clipPath id="clip0_13_29">
<rect width="90" height="60" fill="white" transform="translate(4)"/>
</clipPath>
</defs>
</svg>
